<svg xmlns="http://www.w3.org/2000/svg" width="115" height="115" fill="none"><path fill="#fff" d="M1 97.114c3.653 0 7.684.053 11.212.026 8.23-.053 16.419-.106 24.649-.133 8.272-.026 16.503-.053 24.775-.053 8.23 0 16.419 0 24.65.027l24.691.08c1.007 0 2.015 0 3.023.026"/><path stroke="#000" stroke-linecap="round" stroke-linejoin="round" stroke-miterlimit="10" stroke-width=".3" d="M1 97.114c3.653 0 7.684.053 11.212.026 8.23-.053 16.419-.106 24.649-.133 8.272-.026 16.503-.053 24.775-.053 8.23 0 16.419 0 24.65.027l24.691.08c1.007 0 2.015 0 3.023.026"/><path fill="#fff" d="M92.214 63.604v9.839c0 1.18.37 2.69-1.174 3.236-1.544.545-8.72.326-18.444.352-12.462.033-24.644.29-25.972-.352-1.33-.642-.973-4.057-.95-5.422.024-1.365-.172-3.414 0-7.44.007-.217.02-.433.026-.65.044-1.022.088-2.045.31-3.066.133-.606.398-1.215 3.189-1.672.822-.135 3.517-.064 4.435-.064 4.454-.005 6.137-.007 10.59-.01 5.005-.005 10.004-.009 15.008-.011 2.43-.002 4.872-.017 7.295.008 1.91.02 3.48.204 4.435.794.842.516.919 1.26 1.006 1.706.088.446.246 1.48.246 2.752zm0-34.77v-9.84c0-1.179.37-2.69-1.174-3.236-1.544-.545-8.72-.326-18.444-.352-12.462-.033-24.644-.29-25.972.352-1.33.643-.973 4.057-.95 5.422.024 1.365-.172 3.415 0 7.44.007.217.02.433.026.65.044 1.023.088 2.046.31 3.067.133.606.398 1.214 3.189 1.672.822.134 3.517.064 4.435.064l10.59.01c5.005.004 10.004.009 15.008.01 2.43.003 4.872.017 7.295-.008 1.91-.02 3.48-.204 4.435-.794.842-.515.919-1.259 1.006-1.705.088-.446.246-1.481.246-2.752zM45.637 85.107v9.839c0 1.18-.37 2.69 1.174 3.236 1.544.545 8.72.326 18.444.352 12.462.033 24.644.29 25.973-.352 1.328-.642.972-4.057.949-5.422-.024-1.365.173-3.414 0-7.44-.007-.216-.02-.433-.026-.65-.044-1.023-.088-2.045-.31-3.066-.133-.606-.398-1.215-3.189-1.673-.822-.134-3.517-.063-4.435-.063-4.454-.005-6.137-.007-10.59-.01-5.005-.005-10.004-.01-15.008-.011-2.43-.002-4.872-.017-7.295.008-1.91.02-3.48.204-4.435.794-.842.516-.919 1.26-1.006 1.706a15.106 15.106 0 0 0-.246 2.752z"/><path fill="#fff" fill-rule="evenodd" d="M42.542 6.554a1749.149 1749.149 0 0 0 47.042.574c.524 0 1.05.004 1.575.007 1.218.01 2.44.018 3.654-.02.208-.007.413-.025.614-.05-.266-1.201-.717-2.334-1.509-3.275-1.45-1.73-3.798-2.468-6.052-2.676-1.135-.106-2.274-.1-3.413-.094-.586.003-1.172.006-1.757-.006-1.393-.03-2.791-.006-4.192.017-.856.014-1.714.028-2.571.03l-7.223.017a977.29 977.29 0 0 0-5.007.028c-3.666.027-7.333.053-11-.01-3.129-.056-7.016-.09-9.058 2.722-.596.818-.909 1.761-1.103 2.736zm.13 97.01c9.024.529 18.06 1.003 27.098.911 3.05-.031 6.104-.126 9.159-.221 5.679-.177 11.36-.353 17.01-.118-.104.461-.222.92-.358 1.375-.421 1.4-1.196 2.768-2.46 3.518-.798.472-1.731.667-2.65.81-2.81.44-5.66.488-8.497.476-1.307-.005-2.614.001-3.922.006-1.476.005-2.952.011-4.427.003a413.33 413.33 0 0 1-6.772-.11 413.362 413.362 0 0 0-6.772-.109 92.622 92.622 0 0 1-2.465-.058c-1.175-.038-2.354-.077-3.534-.05-.387.008-.775.019-1.163.03-1.868.052-3.742.104-5.595-.173-1.095-.165-2.25-.489-3.014-1.245-.764-.757-1.087-1.844-1.302-2.897a24.415 24.415 0 0 1-.336-2.148z" clip-rule="evenodd"/><path fill="#fff" stroke="#1A150F" stroke-linecap="round" stroke-linejoin="round" stroke-width=".3" d="M42.192 95.802v.463c-.03 3.163-.087 6.355.547 9.456.215 1.053.538 2.14 1.302 2.897.765.756 1.92 1.08 3.014 1.245 2.238.335 4.506.189 6.758.143 2.008-.046 4.012.097 6 .107 4.513.025 9.029.195 13.543.22 2.783.015 5.566-.019 8.349-.009 2.838.01 5.688-.037 8.497-.477.919-.143 1.852-.337 2.651-.81 1.264-.749 2.038-2.117 2.46-3.517 1.52-5.103.935-10.634.888-15.87l-.097-10.537-.193-21.07-.192-21.069c-.052-5.794-.158-11.59-.158-17.383-.015-1.505.1-3.009.1-4.52 0-1.545-.038-3.089-.115-4.632-.114-2.341-.38-4.842-1.896-6.64-1.454-1.719-3.801-2.461-6.062-2.67-1.718-.16-3.446-.065-5.17-.1-2.244-.048-4.504.041-6.763.047l-7.223.015c-5.335.013-10.67.112-16.007.02-3.129-.057-7.016-.09-9.058 2.721-1.033 1.42-1.216 3.215-1.402 4.905a58.836 58.836 0 0 0-.336 5.667l-.125 8.806c-.052 3.69.16 7.384.145 11.076l-.08 20.918c0 7.45-.021 14.913.087 22.37a1333.49 1333.49 0 0 0 .314 14.451c.04 1.245.197 2.519.222 3.777z"/><g clip-path="url(#a)"><path fill="#fff" d="M44.635 9.18h49.224v2.422H44.635z"/><path fill="#1C1712" d="M85.068 9.556a1.099 1.099 0 0 0-.191.949.77.77 0 0 0 .226.396c.092.074.2.127.316.155a1.091 1.091 0 0 0 1.218-.438.925.925 0 0 0 .042-.8c-.285-.698-1.12-.878-1.61-.262zm3.556 0a1.093 1.093 0 0 0-.191.949.77.77 0 0 0 .226.396.84.84 0 0 0 .314.155 1.092 1.092 0 0 0 1.22-.438.925.925 0 0 0 .042-.8c-.285-.698-1.12-.878-1.61-.262zm3.556 0a1.093 1.093 0 0 0-.192.949.776.776 0 0 0 .226.396.84.84 0 0 0 .314.155 1.092 1.092 0 0 0 1.22-.438.926.926 0 0 0 .042-.8c-.287-.698-1.11-.878-1.61-.262z"/><path stroke="#1C1712" stroke-linecap="round" stroke-linejoin="round" stroke-width=".542" d="m45.017 10.57 9.366-.428"/></g><path fill="#fff" d="M93.815 50.884V39.739c0-1.335.395-3.047-1.255-3.665-1.65-.617-9.32-.37-19.714-.398-13.321-.038-26.342-.33-27.763.398-1.42.728-1.04 4.595-1.015 6.141.026 1.546-.184 3.868 0 8.428.007.245.021.49.028.735.047 1.159.094 2.317.331 3.474.142.686.426 1.376 3.409 1.894.879.152 3.76.072 4.74.072l11.321.012c5.35.005 10.692.01 16.042.012 2.596.002 5.207.019 7.797-.01 2.042-.023 3.72-.23 4.74-.899.9-.584.983-1.426 1.076-1.932.094-.505.263-1.677.263-3.117z"/><path fill="#C0C8E5" d="M92.214 63.604v9.839c0 1.18.37 2.69-1.174 3.236-1.544.545-8.72.326-18.444.352-12.462.033-24.644.29-25.972-.352-1.33-.642-.973-4.057-.95-5.422.024-1.365-.172-3.414 0-7.44.007-.217.02-.433.026-.65.044-1.022.088-2.045.31-3.066.133-.606.398-1.215 3.189-1.672.822-.135 3.517-.064 4.435-.064 4.454-.005 6.137-.007 10.59-.01 5.005-.005 10.004-.009 15.008-.011 2.43-.002 4.872-.017 7.295.008 1.91.02 3.48.204 4.435.794.842.516.919 1.26 1.006 1.706.088.446.246 1.48.246 2.752zm0-34.77v-9.84c0-1.179.37-2.69-1.174-3.236-1.544-.545-8.72-.326-18.444-.352-12.462-.033-24.644-.29-25.972.352-1.33.643-.973 4.057-.95 5.422.024 1.365-.172 3.415 0 7.44.007.217.02.433.026.65.044 1.023.088 2.046.31 3.067.133.606.398 1.214 3.189 1.672.822.134 3.517.064 4.435.064l10.59.01c5.005.004 10.004.009 15.008.01 2.43.003 4.872.017 7.295-.008 1.91-.02 3.48-.204 4.435-.794.842-.515.919-1.259 1.006-1.705.088-.446.246-1.481.246-2.752zM45.637 85.107v9.839c0 1.18-.37 2.69 1.174 3.236 1.544.545 8.72.326 18.444.352 12.462.033 24.644.29 25.973-.352 1.328-.642.972-4.057.949-5.422-.024-1.365.173-3.414 0-7.44-.007-.216-.02-.433-.026-.65-.044-1.023-.088-2.045-.31-3.066-.133-.606-.398-1.215-3.189-1.673-.822-.134-3.517-.063-4.435-.063-4.454-.005-6.137-.007-10.59-.01-5.005-.005-10.004-.01-15.008-.011-2.43-.002-4.872-.017-7.295.008-1.91.02-3.48.204-4.435.794-.842.516-.919 1.26-1.006 1.706a15.106 15.106 0 0 0-.246 2.752z"/><path fill="#1A150F" fill-rule="evenodd" d="M42.542 6.554a1749.149 1749.149 0 0 0 47.042.574c.524 0 1.05.004 1.575.007 1.218.01 2.44.018 3.654-.02.208-.007.413-.025.614-.05-.266-1.201-.717-2.334-1.509-3.275-1.45-1.73-3.798-2.468-6.052-2.676-1.135-.106-2.274-.1-3.413-.094-.586.003-1.172.006-1.757-.006-1.393-.03-2.791-.006-4.192.017-.856.014-1.714.028-2.571.03l-7.223.017a977.29 977.29 0 0 0-5.007.028c-3.666.027-7.333.053-11-.01-3.129-.056-7.016-.09-9.058 2.722-.596.818-.909 1.761-1.103 2.736zm.13 97.01c9.024.529 18.06 1.003 27.098.911 3.05-.031 6.104-.126 9.159-.221 5.679-.177 11.36-.353 17.01-.118-.104.461-.222.92-.358 1.375-.421 1.4-1.196 2.768-2.46 3.518-.798.472-1.731.667-2.65.81-2.81.44-5.66.488-8.497.476-1.307-.005-2.614.001-3.922.006-1.476.005-2.952.011-4.427.003a413.33 413.33 0 0 1-6.772-.11 413.362 413.362 0 0 0-6.772-.109 92.622 92.622 0 0 1-2.465-.058c-1.175-.038-2.354-.077-3.534-.05-.387.008-.775.019-1.163.03-1.868.052-3.742.104-5.595-.173-1.095-.165-2.25-.489-3.014-1.245-.764-.757-1.087-1.844-1.302-2.897a24.415 24.415 0 0 1-.336-2.148z" clip-rule="evenodd"/><path stroke="#1A150F" stroke-linecap="round" stroke-linejoin="round" stroke-width=".3" d="M42.192 95.802v.463c-.03 3.163-.087 6.355.547 9.456.215 1.053.538 2.14 1.302 2.897.765.756 1.92 1.08 3.014 1.245 2.238.335 4.506.189 6.758.143 2.008-.046 4.012.097 6 .107 4.513.025 9.029.195 13.543.22 2.783.015 5.566-.019 8.349-.009 2.838.01 5.688-.037 8.497-.477.919-.143 1.852-.337 2.651-.81 1.264-.749 2.038-2.117 2.46-3.517 1.52-5.103.935-10.634.888-15.87l-.097-10.537-.193-21.07-.192-21.069c-.052-5.794-.158-11.59-.158-17.383-.015-1.505.1-3.009.1-4.52 0-1.545-.038-3.089-.115-4.632-.114-2.341-.38-4.842-1.896-6.64-1.454-1.719-3.801-2.461-6.062-2.67-1.718-.16-3.446-.065-5.17-.1-2.244-.048-4.504.041-6.763.047l-7.223.015c-5.335.013-10.67.112-16.007.02-3.129-.057-7.016-.09-9.058 2.721-1.033 1.42-1.216 3.215-1.402 4.905a58.836 58.836 0 0 0-.336 5.667l-.125 8.806c-.052 3.69.16 7.384.145 11.076l-.08 20.918c0 7.45-.021 14.913.087 22.37a1333.49 1333.49 0 0 0 .314 14.451c.04 1.245.197 2.519.222 3.777z"/><g clip-path="url(#b)"><path fill="#1C1712" d="M85.068 9.556a1.099 1.099 0 0 0-.191.949.77.77 0 0 0 .226.396c.092.074.2.127.316.155a1.091 1.091 0 0 0 1.218-.438.925.925 0 0 0 .042-.8c-.285-.698-1.12-.878-1.61-.262zm3.556 0a1.093 1.093 0 0 0-.191.949.77.77 0 0 0 .226.396.84.84 0 0 0 .314.155 1.092 1.092 0 0 0 1.22-.438.925.925 0 0 0 .042-.8c-.285-.698-1.12-.878-1.61-.262zm3.556 0a1.093 1.093 0 0 0-.192.949.776.776 0 0 0 .226.396.84.84 0 0 0 .314.155 1.092 1.092 0 0 0 1.22-.438.926.926 0 0 0 .042-.8c-.287-.698-1.11-.878-1.61-.262z"/><path stroke="#1C1712" stroke-linecap="round" stroke-linejoin="round" stroke-width=".542" d="m45.017 10.57 9.366-.428"/></g><path fill="#5465A3" d="M93.815 50.884V39.739c0-1.335.395-3.047-1.255-3.665-1.65-.617-9.32-.37-19.714-.398-13.321-.038-26.342-.33-27.763.398-1.42.728-1.04 4.595-1.015 6.141.026 1.546-.184 3.868 0 8.428.007.245.021.49.028.735.047 1.159.094 2.317.331 3.474.142.686.426 1.376 3.409 1.894.879.152 3.76.072 4.74.072l11.321.012c5.35.005 10.692.01 16.042.012 2.596.002 5.207.019 7.797-.01 2.042-.023 3.72-.23 4.74-.899.9-.584.983-1.426 1.076-1.932.094-.505.263-1.677.263-3.117z"/><path fill="#fff" stroke="#000" stroke-linecap="round" stroke-linejoin="round" stroke-width=".3" d="M23.348 59.181s2.575 23.897 2.784 25.865c.21 1.968-.198 7.386 2.211 21.043l3.218.161c.164-5.9.447-16.248.486-18.646.054-3.406.699-21.447.699-21.447s-7.43-11.7-9.398-6.976z"/><path fill="#fff" stroke="#000" stroke-linecap="round" stroke-linejoin="round" stroke-width=".3" d="m32.07 112.211-3.178-.508-.775-7.373 3.213.161.74 7.72zM24.372 20.79c.424-.12.856-.206 1.293-.256.527-.076.89-.15 1.385.093.56.274.99.82 1.318 1.334.372.609.685 1.25.937 1.917.348.857.68 1.75.689 2.677.008.926-.31 1.827-.78 2.618-.223.374-.386.684-.83.804-.359.096-.772.053-1.044-.217-.317.946-.039 2.083.017 3.076 0 .08.236 1.018-.593 1.018-1.608.013-3.935-.382-5.544-.458-.107-1.39 1.467-3.986 1.556-4.453.011-.06-.178-.287-.208-.338a12.029 12.029 0 0 1-.484-.916c-.419-.887-.753-1.838-.843-2.818-.09-.98.106-2.004.787-2.763.42-.448.938-.794 1.515-1.01.276-.117.552-.22.83-.308z"/><path fill="#000" stroke="#000" stroke-linecap="round" stroke-linejoin="round" stroke-width=".3" d="m27.912 21.223-2.76 4.014c-.495-.907-1.228-.668-1.617.066-.477.903.602 1.673.495 1.978a4.048 4.048 0 0 1-1.094 1.549c-.22.178-.294.029-.495-.117a4.762 4.762 0 0 0-.643-.38c-.436-.224-.892-.415-1.293-.7-.923-.66-1.447-1.792-1.476-2.92-.03-1.168.427-2.229 1.113-3.153.463-.63.858-1.144 1.583-1.51a5.09 5.09 0 0 1 3.05-.437 5.58 5.58 0 0 1 1.643.528c.15.074 1.585.948 1.494 1.082z"/><path fill="#000" stroke="#000" stroke-linecap="round" stroke-linejoin="round" stroke-width=".3" d="M23.2 17.446c.336 1.434-.358 2.537-1.675 2.84-1.318.304-2.139-.49-2.475-1.928-.337-1.438.104-2.669 1.421-2.972 1.318-.304 2.391.627 2.729 2.06z"/><path fill="#fff" stroke="#000" stroke-linecap="round" stroke-linejoin="round" stroke-width=".3" d="M15.186 64.777s-.157 3.85.248 14.143c.355 9.025-.248 13.162 1.4 25.855h3.135c.138-8.342.341-8.317 3.765-42.162 0 0-6.631-2.581-8.548 2.164z"/><path fill="#fff" stroke="#000" stroke-linecap="round" stroke-linejoin="round" stroke-width=".3" d="m16.83 110.516 3.136.37v-6.113H16.83v5.743zM15.534 35.22S6.45 49.097 8.564 53.456c2.116 4.36 10.377 6.104 10.377 6.104l-.852-21.983-2.555-2.355z"/><path fill="#fff" d="M16.41 33.705c-1.058 7.208-2.866 35.017-2.866 35.017 3.477 3.707 20.429.155 20.429.155s.022-22.26-1.665-33.118"/><path stroke="#000" stroke-linecap="round" stroke-linejoin="round" stroke-width=".3" d="M16.41 33.705c-1.058 7.208-2.866 35.017-2.866 35.017 3.477 3.707 20.429.155 20.429.155s.022-22.26-1.665-33.118"/><path fill="#fff" stroke="#000" stroke-linecap="round" stroke-linejoin="round" stroke-width=".3" d="M28.348 109.929h-.017a.205.205 0 0 0-.124.042.217.217 0 0 0-.057.123c-.171.702-.29 1.416-.356 2.135-.021.234-.21 1.251.067 1.407.357.201 10.35.353 10.928-.21.305-.296.124-1.293-.247-1.558-1.092-.782-2.54-.937-3.75-1.519a22.063 22.063 0 0 1-1.759-.939c-.454-.272-.792-.796-1.315-.307-.259.245-.47.53-.743.762a1.567 1.567 0 0 1-1.3.349c-.45-.069-.865-.319-1.327-.285zm-12.025.729c.019-.196.052-.391.1-.583a7.93 7.93 0 0 1 .361-.98.17.17 0 0 1 .067-.092.188.188 0 0 1 .074-.013l2.321-.082a1.21 1.21 0 0 1 .44.039c.116.048.223.113.319.194a.503.503 0 0 1 .234.361c.117.379.212.763.287 1.153.037.263.29 3.29-.3 3.339-.285.023-1.061-.026-1.816-.01h-.031c-.754-.016-1.53.033-1.814.01-.283-.024-.32-.594-.351-.8a5.996 5.996 0 0 1-.042-1.191c.02-.337.059-.671.107-1.005.018-.112.031-.227.044-.34z"/><path fill="#fff" d="M24.676 36.278c-.966.343-1.95.634-2.946.872-2.287.536-5.08.88-7.177-.44-2.239-1.398-2.857-4.533-2.218-6.933.098-.367.248-.75.59-.924.121-.056.251-.093.384-.11 1.587-.26 3.135.328 4.64.735.75.192 1.513.324 2.284.396.764.082 1.525.353 2.276.549.99.257 1.945.612 2.915.883.907.255 1.768.412 2.626.835 1.668.823 3.093 2.106 4.197 3.582"/><path stroke="#000" stroke-linecap="round" stroke-linejoin="round" stroke-width=".3" d="M24.676 36.278c-.966.343-1.95.634-2.946.872-2.287.536-5.08.88-7.177-.44-2.239-1.398-2.857-4.533-2.218-6.933.098-.367.248-.75.59-.924.121-.056.251-.093.384-.11 1.587-.26 3.135.328 4.64.735.75.192 1.513.324 2.284.396.764.082 1.525.353 2.276.549.99.257 1.945.612 2.915.883.907.255 1.768.412 2.626.835 1.668.823 3.093 2.106 4.197 3.582"/><path fill="#fff" stroke="#000" stroke-linecap="round" stroke-linejoin="round" stroke-width=".3" d="M45.598 47.025c-.029-.075-.056-.15-.083-.225.762-.245 1.348-.91 1.98-1.37.777-.574 1.507-1.191 2.316-1.723.583-.384 1.181-.744 1.774-1.114.593-.37 1.148-.77 1.76-1.09.234-.123.601-.368.877-.259a.288.288 0 0 1 .153.319.719.719 0 0 1-.183.331c-.37.432-.828.766-1.28 1.103-.388.289-.93.612-1.097 1.087a1.723 1.723 0 0 0-.037.742c.076.735.182 1.486.077 2.222-.05.351-.188.595-.525.735-.57.234-1.21.236-1.826.288-.54.045-1.245.083-1.658.475-.327.311-.619.653-.958.953a11.75 11.75 0 0 1-1.29-2.474z"/><path fill="#fff" d="m32.222 35.66 6.547 12.163 7.672-1.694 1.397 3.185s-7.625 4.716-10.606 4.005c-2.98-.71-9.738-7.192-9.738-7.192"/><path stroke="#000" stroke-linecap="round" stroke-linejoin="round" stroke-width=".3" d="m32.222 35.66 6.547 12.163 7.672-1.694 1.397 3.185s-7.625 4.716-10.606 4.005c-2.98-.71-9.738-7.192-9.738-7.192"/><defs><clipPath id="a"><path fill="#fff" d="M44.635 9.18h49.224v2.421H44.635z"/></clipPath><clipPath id="b"><path fill="#fff" d="M44.635 9.18h49.224v2.421H44.635z"/></clipPath></defs></svg>