<svg xmlns="http://www.w3.org/2000/svg" width="115" height="114" fill="none"><path fill="#C0C8E5" d="M86.344 104.486c-1.275-11.227.255-97.083 0-103.358 5.356-1.98 17.343 0 23.209 0 0 9.577 1.197 101.707.177 103.358-2.993 0-18.795 1.651-23.386 0z"/><path fill="#fff" d="M1 104.853c3.653 0 7.684.048 11.212.024 8.23-.048 16.419-.097 24.649-.121 8.272-.024 16.503-.048 24.775-.048 8.23 0 16.419 0 24.65.024l24.691.072c1.007 0 2.015 0 3.023.025"/><path stroke="#000" stroke-linecap="round" stroke-linejoin="round" stroke-miterlimit="10" stroke-width=".3" d="M1 104.853c3.653 0 7.684.048 11.212.024 8.23-.048 16.419-.097 24.649-.121 8.272-.024 16.503-.048 24.775-.048 8.23 0 16.419 0 24.65.024l24.691.072c1.007 0 2.015 0 3.023.025"/><path fill="#C0C8E5" stroke="#000" stroke-linecap="round" stroke-linejoin="round" stroke-width=".3" d="m72.484 73.899-9.02-.412c-.984-.044-2.058-.124-2.779-.78-.773-.703-.893-1.843-.879-2.873.011-.836.078-1.67.2-2.497.07-.476.172-.978.503-1.334.458-.493 1.21-.57 1.894-.607 7.288-.422 14.71-.53 22.018-.247 1.285.05 2.448.15 3.72.34.334.049.679.114.95.31.44.317.572.894.653 1.421.183 1.264.213 2.546.09 3.817-.06.653-.189 1.338-.646 1.816-.615.642-1.621.699-2.522.713-5.024.078-10.049.522-14.182.333z"/><path stroke="#000" stroke-linecap="round" stroke-linejoin="round" stroke-width=".3" d="M90.12 69.62c.805-.029 1.611.036 2.4.191.204.023.396.101.555.226.185.173.23.441.26.69a22.62 22.62 0 0 1-.122 6.306c-.035.218-.081.451-.237.611a1.164 1.164 0 0 1-.516.252c-5.284 1.545-10.818 2.069-16.205 3.233-.284.062-.591.14-.765.367-.135.18-.16.413-.178.636l-.286 3.384"/><path fill="#fff" stroke="#000" stroke-linecap="round" stroke-linejoin="round" stroke-width=".3" d="M73.016 85.67a30.977 30.977 0 0 1 4.234-.056c.36 4.685.509 9.38.45 14.085-.027 2.152-.102 4.313-.48 6.429-.165.913-.426 2.176-.886 2.988-.46.813-1.094 1.463-2.01 1.699-.915.235-2.025-.11-2.668-.793-.643-.682-.737-1.652-.776-2.561-.166-3.875.287-7.747.74-11.596l1.138-9.705c.017-.202.123-.48.258-.49z"/><path fill="#fff" stroke="#000" stroke-linejoin="round" stroke-width=".3" d="M17.098 109.645V78.647c10.987-.116 32.965-.302 32.98-.113.018.235-.11 30.185-.287 31.111-.178.925-8.529 3.354-16.17 3.354-7.64 0-16.523-1.504-16.523-3.354z"/><path fill="#fff" stroke="#000" stroke-width=".3" d="M50.042 78.4c0 1.547-7.371 2.8-16.464 2.8-10.934 0-16.465-1.253-16.465-2.8s6.486-2.71 16.465-2.8c9.978-.092 16.464 1.253 16.464 2.8z"/><path fill="#fff" stroke="#000" stroke-width=".3" d="M50.042 78.4c0 1.547-7.371 2.8-16.464 2.8-10.934 0-16.465-1.253-16.465-2.8s6.486-2.71 16.465-2.8c9.978-.092 16.464 1.253 16.464 2.8z"/><path fill="#fff" stroke="#000" stroke-width=".3" d="M47.756 78.398c0 .653-6.347 1.182-14.177 1.182-9.414 0-14.177-.53-14.177-1.182 0-.652 5.584-1.143 14.177-1.181 8.592-.039 14.177.529 14.177 1.181z"/><path fill="#5465A3" stroke="#000" stroke-linejoin="round" stroke-width=".3" d="M25 91.003s4.2.914 8.698.914c4.499 0 8.48-.914 8.48-.914v6.767s-4.86.96-8.48.96S25 97.77 25 97.77v-6.767z"/><path fill="#5465A3" d="M48.759 79.06c.193 1.046-.473 2.196-1.387 2.406-.939.213-2.042-.411-2.804.249-.28.242-.445.614-.663.922-1.111 1.595-3.251 1.379-5.005.997-1.753-.383-3.877-.649-5.034.902-.809 1.092-.809 2.68-1.293 4.003a1.312 1.312 0 0 1-.327.55c-.534.457-1.292-.28-1.387-1.033-.095-.752.139-1.526.017-2.274-.121-.749-.94-1.429-1.43-.912-.176.186-.243.468-.29.735-.49 2.786.405 5.766-.347 8.473-.129.46-.324.931-.687 1.186-.7.486-1.664-.15-1.965-1.02-.3-.87-.131-1.845.038-2.768l.558-3.004c.168-.908.327-1.91-.069-2.722-.395-.812-1.6-1.095-1.984-.277-.263.563 0 1.242.047 1.878.048.637-.474 1.44-.945 1.096a.922.922 0 0 1-.273-.417 4.23 4.23 0 0 1-.25-2.188c.092-.611.319-1.221.212-1.83-.106-.609-.787-2.172-1.194-1.76-.135.132-.207.346-.353.467-.257.212-.614.071-.904-.075-.848-.428-1.597-2.436-2.537-2.622 0-.172-.256-.103-.13-.544 4.745-.958 11.51-1.44 17.406-1.39 2.248.02 6.868.051 8.126.159 1.257.107 3.16.343 4.854.812z"/><path fill="#fff" stroke="#000" stroke-linecap="round" stroke-linejoin="round" stroke-width=".3" d="m25 79.671-3.261-9.17c-.608-1.705-1.216-3.411-1.95-5.057-.18-.405-.377-.82-.7-1.101-.323-.282-.806-.397-1.156-.154-.587.41-.392 1.379-.128 2.08 1.677 4.442 3.285 8.764 4.958 13.206.017.053 2.073.196 2.236.196z"/><path fill="#C0C8E5" d="M63.298 73.505c-1.275-7.917.255-68.46 0-72.884 5.356-1.397 17.343 0 23.21 0 0 6.753 1.196 71.72.176 72.884-2.993 0-18.795 1.164-23.386 0z"/></svg>