<svg xmlns="http://www.w3.org/2000/svg" width="115" height="105" fill="none"><path fill="#C0C8E5" d="M113.924 79.67c.203-14.3 0-28.6-.608-42.88-24.487 1.096-49.02 1.615-73.506.359-12.633-.659-25.375-1.775-37.884.718a258.848 258.848 0 0 0-.514 36.477c.093 1.695-.234 5.126 1.279 5.983.826.46 1.965.22 2.838.22 1.232.02 2.464.02 3.697.04 4.803.04 9.591.08 14.395.1a2804.503 2804.503 0 0 0 57.925-.34c9.654-.16 19.308-.359 28.962-.598.297 0 3.416-.06 3.416-.08z"/><path stroke="#000" stroke-linecap="round" stroke-linejoin="round" stroke-miterlimit="10" stroke-width=".3" d="M1 59.83c37.672 1.117 75.344.912 113-.64M1 95.512h113M90.777 38.273c-.745 13.694-1.176 27.994-.549 41.687"/><path stroke="#000" stroke-linecap="round" stroke-linejoin="round" stroke-miterlimit="10" stroke-width=".3" d="M59.236 38.645c.647 11.108-.842 22.215-.724 33.342.02 2.821.156 5.642.058 8.482M27.777 37.606c.549 7.327.137 14.693.098 22.039-.039 6.974.235 13.948.53 20.902a9.044 9.044 0 0 1-.216-.45"/><g clip-path="url(#a)"><path fill="#fff" d="M49.403 9.51c0 .41 0 .82-.015 1.23.637 0 1.244.455 1.441 1.046.076.228.091.486.107.729a24.24 24.24 0 0 1-.122 4.323c-.06.562-.151 1.138-.349 1.67-.09.242-.197.47-.379.652a1.899 1.899 0 0 1-.713.424c-.44.167-.91.273-1.365.198a1.473 1.473 0 0 1-.698-.319 2.403 2.403 0 0 1-.44-.592c-.41-.804-.501-1.73-.531-2.624-.046-1.29.015-2.58.197-3.87.045-.272.091-.56.227-.803.243-.41.714-.607 1.154-.79.03-.014-.122-1.076.06-1.258.137-.137.41-.076.577-.061l.85.046z"/><path stroke="#000" stroke-linecap="round" stroke-linejoin="round" stroke-miterlimit="10" stroke-width=".4" d="M47.871 12.104a14.673 14.673 0 0 0 .092 4.157c.03.151.06.303.166.424a.436.436 0 0 0 .304.137c.334.045.652-.197.804-.5.152-.304.167-.653.182-.987.03-1.092.015-2.185-.076-3.262"/><path fill="#000" d="M50.858 12.165c.06-.591-.35-1.213-.94-1.365-.122-.03-.274-.045-.365-.136a.451.451 0 0 1-.121-.274 4.502 4.502 0 0 1-.122-.788c0-.091-.015-.198-.09-.243-.046-.03-.092-.03-.137-.03a2.786 2.786 0 0 0-1.062.166c-.046.016-.091.03-.122.061-.06.06-.06.137-.06.212-.016.228-.016.47 0 .698 0 .061 0 .122-.016.182-.045.091-.151.137-.242.182a1.889 1.889 0 0 0-.759.623c-.106.166-.425.667-.152.743.152.045.41-.015.577-.015h.683c.455 0 .925-.015 1.38-.015h1.548z"/><path stroke="#000" stroke-linecap="round" stroke-linejoin="round" stroke-miterlimit="10" stroke-width=".4" d="M48.662 9.419c-.09-5.78-.182-11.576.243-17.34"/><path fill="#fff" d="M62.437 7.152c0 .41 0 .82-.016 1.229.638 0 1.244.455 1.442 1.047.075.227.09.485.106.728a24.24 24.24 0 0 1-.122 4.324c-.06.561-.151 1.138-.349 1.669-.09.242-.197.47-.379.652a1.899 1.899 0 0 1-.713.425c-.44.167-.91.273-1.365.197a1.472 1.472 0 0 1-.698-.318 2.403 2.403 0 0 1-.44-.592c-.41-.804-.5-1.73-.531-2.625-.046-1.29.015-2.579.197-3.868.046-.274.091-.562.228-.805.242-.41.713-.606 1.153-.788.03-.016-.122-1.078.06-1.26.137-.136.41-.076.577-.06l.85.045z"/><path stroke="#000" stroke-linecap="round" stroke-linejoin="round" stroke-miterlimit="10" stroke-width=".4" d="M60.907 9.762a14.677 14.677 0 0 0 .09 4.157c.031.151.061.303.168.425a.436.436 0 0 0 .303.136c.334.046.652-.197.804-.5.152-.304.167-.653.182-.987a29.2 29.2 0 0 0-.076-3.262"/><path fill="#000" d="M63.895 9.808c.06-.592-.35-1.214-.94-1.365-.122-.03-.274-.046-.365-.137a.452.452 0 0 1-.121-.273 4.5 4.5 0 0 1-.122-.789c0-.09-.015-.197-.09-.243-.046-.03-.092-.03-.137-.03a2.786 2.786 0 0 0-1.062.167.31.31 0 0 0-.122.06c-.06.061-.06.137-.06.213-.015.228-.015.47 0 .698 0 .06 0 .121-.015.182-.046.091-.152.136-.243.182a1.888 1.888 0 0 0-.759.622c-.106.167-.425.668-.151.743.151.046.41-.015.576-.015h.683c.455 0 .925-.015 1.38-.015.516.015 1.032.015 1.548 0z"/><path stroke="#000" stroke-linecap="round" stroke-linejoin="round" stroke-miterlimit="10" stroke-width=".4" d="M61.696 7.077c-.091-5.78-.182-11.576.242-17.34"/><path fill="#fff" d="M57.415 16.19c0 .409 0 .819-.015 1.228.637 0 1.244.455 1.441 1.047.076.227.091.485.106.728a24.24 24.24 0 0 1-.121 4.324c-.06.561-.152 1.138-.349 1.669-.091.243-.197.47-.38.652a1.899 1.899 0 0 1-.712.425c-.44.167-.91.273-1.366.197a1.472 1.472 0 0 1-.698-.318 2.403 2.403 0 0 1-.44-.592c-.41-.804-.5-1.73-.53-2.625-.046-1.29.015-2.579.197-3.868.045-.273.09-.562.227-.804.243-.41.713-.607 1.153-.79.03-.015-.121-1.076.06-1.259.138-.136.41-.075.577-.06l.85.045z"/><path stroke="#000" stroke-linecap="round" stroke-linejoin="round" stroke-miterlimit="10" stroke-width=".4" d="M55.883 18.783a14.673 14.673 0 0 0 .091 4.157c.03.152.061.304.167.425a.436.436 0 0 0 .304.137c.333.045.652-.198.804-.501.151-.303.167-.652.182-.986a29.27 29.27 0 0 0-.076-3.262"/><path fill="#000" d="M58.873 18.844c.061-.591-.349-1.213-.94-1.365-.122-.03-.273-.046-.364-.137a.452.452 0 0 1-.122-.273 4.501 4.501 0 0 1-.121-.789c0-.09-.015-.197-.091-.242-.046-.03-.091-.03-.137-.03a2.785 2.785 0 0 0-1.062.166.305.305 0 0 0-.121.06c-.06.061-.06.137-.06.213-.016.228-.016.47 0 .698 0 .06 0 .121-.016.182-.045.091-.152.137-.243.182a1.888 1.888 0 0 0-.758.622c-.106.167-.425.668-.152.744.152.045.41-.016.577-.016h.682c.455 0 .926-.015 1.38-.015h1.548z"/><path stroke="#000" stroke-linecap="round" stroke-linejoin="round" stroke-miterlimit="10" stroke-width=".4" d="M56.674 16.098c-.09-5.78-.182-11.576.243-17.341"/></g><path fill="#fff" d="M50.333 71.145c.55-.274 4.634-1.659 6.607-2.317-.297.66 2.294 3.284 3.024 3.674.584.311 2.58-.13 3.506-.39 1.104.34 3.39 1.266 3.7 2.24.39 1.217 3.41 4.236 4.578 7.45.935 2.572-.941 7.045-1.996 8.96l-1.51 7.5-8.278 1.168c-3.604-.21-11.005-.506-11.784 0-.974.633-3.31.39-5.503-1.169-2.192-1.558-2.484-7.304-2.338-14.024.146-6.72 3.167-8.668 4.53-10.226 1.364-1.558 4.777-2.523 5.464-2.866z"/><path stroke="#000" stroke-linecap="round" stroke-linejoin="round" stroke-miterlimit="10" stroke-width=".3" d="M68.901 75.753c.775 1.636 1.549 3.247 2.323 4.882.14.322.304.62.328.967.023.297-.024.57-.094.867-.563 2.677-1.126 5.378-1.712 8.055-.305 1.363-.587 2.726-.891 4.064a61.48 61.48 0 0 1-.47 2.033c-.07.347-.164 1.462-.445 1.66-.282.174-1.407-.124-1.736-.148-.657-.05-1.313-.1-1.947-.15-1.407-.123-2.838-.222-4.245-.37-2.627-.273-7.08 1.461-9.59.668"/><path fill="#fff" d="M75.531 76.42c2.75 4.09 3.815 9.141 3.793 14.064-.02 3.644-.66 7.416-2.727 10.421-.299.426-.661.853-1.151.938-.575.106-1.13-.256-1.599-.597-.916-.703-1.832-1.449-2.429-2.43-1.023-1.725-.895-3.878-.831-5.881a57.1 57.1 0 0 0-.682-10.442c-.128-.831-.277-1.684-.64-2.451-.49-1.066-1.32-1.94-2.109-2.813a43.047 43.047 0 0 1-3.474-4.39c-.575-.831-1.32-2.195-.447-3.09.746-.767 2.067-.362 2.962-.15 2.43.619 4.688 1.919 6.542 3.602a16.741 16.741 0 0 1 2.792 3.218z"/><path stroke="#000" stroke-linecap="round" stroke-linejoin="round" stroke-miterlimit="10" stroke-width=".3" d="M68.634 79.785c.807 1.613 1.613 5.646 1.613 8.065 0 2.42.538 5.377.807 6.452"/><path stroke="#000" stroke-linecap="round" stroke-linejoin="round" stroke-miterlimit="10" stroke-width=".3" d="M64.107 69.43c4.07.746 8.14 2.493 10.762 5.711 1.662 2.024 2.642 4.54 3.324 7.075 1.705 6.287 1.641 13.234-1.342 19.031"/><path fill="#000" d="M61.651 69.3a52.342 52.342 0 0 0 6.353-1.317c.954-.264 1.958-.6 2.611-1.318.527-.623.728-1.438 1.155-2.109.678-1.078 1.908-1.845 2.31-3.043.352-1.054-.05-2.228.176-3.306.125-.599.402-1.15.502-1.75.2-1.389-.703-2.659-1.105-4-.552-1.75-.351-3.81-1.556-5.224-.854-1.006-2.235-1.437-3.29-2.252-.728-.551-1.28-1.294-2.008-1.845a4.996 4.996 0 0 0-3.164-.982c-1.055.024-2.11.383-3.164.311-1.205-.096-2.385-.743-3.565-.55-1.482.263-2.41 1.748-3.842 2.132-1.18.335-2.586-.096-3.59.575-1.03.694-1.055 2.18-1.884 3.09-.502.552-1.28.863-1.732 1.462-.578.79-.452 1.845-.628 2.78-.25 1.365-1.205 2.587-1.08 3.977.05.742.427 1.437.603 2.156.276 1.222-.05 2.54.477 3.666.502 1.102 1.708 1.773 2.335 2.827.578.959.678 2.276 1.632 2.876.854.55 2.009.287 2.988.55.628.168 1.18.552 1.758.815.602.24 1.356.336 1.883-.048"/><path stroke="#000" stroke-linecap="round" stroke-linejoin="round" stroke-miterlimit="10" stroke-width=".3" d="M56.022 72.528c-1.486 1.26-4.594 5.131-5.764 6.672-1.45 1.856-3.954 5.93-4.695 8.4"/><path fill="#fff" d="M58.066 66.074c-.344 1.849-.688 3.323-1.007 5.018a.54.54 0 0 0 .294.616c.81.572 2.283.858 3.314.814 1.4-.066 2.774-.572 2.823-.682.05-.11-.27-4.225-.515-5.678"/><path stroke="#000" stroke-linecap="round" stroke-linejoin="round" stroke-miterlimit="10" stroke-width=".3" d="M58.066 66.074c-.344 1.849-.688 3.323-1.007 5.018a.54.54 0 0 0 .294.616c.81.572 2.283.858 3.314.814 1.4-.066 2.774-.572 2.823-.682.05-.11-.27-4.225-.515-5.678"/><path fill="#fff" d="M65.953 59.816c.534-.312 1.313-.234 1.803.137.49.37.668 1.015.534 1.561a1.813 1.813 0 0 1-1.358 1.288c-.668.157-1.469-.097-1.825-.624"/><path stroke="#000" stroke-linecap="round" stroke-linejoin="round" stroke-miterlimit="10" stroke-width=".3" d="M65.953 59.816c.534-.312 1.313-.234 1.803.137.49.37.668 1.015.534 1.561a1.813 1.813 0 0 1-1.358 1.288c-.668.157-1.469-.097-1.825-.624"/><path fill="#fff" d="M54.584 59.816c-.534-.312-1.314-.234-1.803.137-.49.37-.668 1.015-.535 1.561a1.813 1.813 0 0 0 1.358 1.288c.668.157 1.47-.097 1.826-.624"/><path stroke="#000" stroke-linecap="round" stroke-linejoin="round" stroke-miterlimit="10" stroke-width=".3" d="M54.584 59.816c-.534-.312-1.314-.234-1.803.137-.49.37-.668 1.015-.535 1.561a1.813 1.813 0 0 0 1.358 1.288c.668.157 1.47-.097 1.826-.624M56 69.3c-1.693.424-4.834 1.144-7.372 2.414-2.537 1.27-4.993 2.883-6.87 6.965-1.877 4.083-2.146 13.349-.621 17.222 1.525 3.873 2.56 4.363 4.735 4.617 2.175.254 2.795-.027 6.783-6.378 3.987-6.35 5.439-15.44 6.003-19.632"/><path fill="#fff" stroke="#000" stroke-linecap="round" stroke-linejoin="round" stroke-miterlimit="10" stroke-width=".3" d="M55.176 62.36c.8 1.722 1.999 3.204 3.373 4.423.325.291.65.556 1.025.715.725.317 1.55.212 2.25-.133.699-.344 1.299-.9 1.823-1.483 1.875-2.118 3.1-4.925 3.074-7.838 0-1.271-.25-2.569-.85-3.708-.524-1.006-1.299-1.853-2.124-2.595-.75-.662-1.574-1.245-2.499-1.562-1.574-.53-3.373-.133-4.723.9-1.25.953-2.124 2.383-2.549 3.946-.175.662-.225 1.218-.05 1.88.2.794.15 1.589.275 2.41a14.79 14.79 0 0 0 .975 3.045z"/><path fill="#000" d="M67.035 58.01a7.034 7.034 0 0 0-1.384-.543c-.62-.155-1.312-.258-1.765-.75-.358-.413-.5-1.008-.787-1.473-.525-.801-1.455-1.137-2.338-1.37-.882-.233-1.836-.413-2.504-1.06-.143-.155-.286-.31-.501-.336-.215-.026-.406.13-.572.285-.907.93-1.312 2.3-2.123 3.334-.263.336-.597.62-1.002.62-.358 0-.668-.284-.835-.62-.167-.336-.215-.724-.215-1.111.024-1.267.501-2.508 1.264-3.49.764-.982 1.742-1.706 2.815-2.249 2.004-.982 4.389-1.293 6.393-.336 1.502.698 2.695 2.068 3.363 3.697.668 1.602.835 3.438.548 5.195"/><path fill="#fff" stroke="#000" stroke-linecap="round" stroke-linejoin="round" stroke-miterlimit="10" stroke-width=".3" d="M57.611 66.09c.406-.401 1.49.967 2.45 1.017.962.05 1.78-1.634 2.592-2.034.811-.401 1.907.201 2.433.452.108.4-.189 1.3-.324 1.7a11.1 11.1 0 0 1-.73 1.654 4.956 4.956 0 0 1-.595.927c-.216.25-.514.476-.784.702-1.055.927-1.758 2.13-2.975 2.906-.135.075-.27.15-.405.2-.244.076-.541.05-.812 0-.622-.075-1.27-.25-1.622-.65-.514-.602-.565-.828-.283-1.58.283-.75.526-1.502.676-2.129.15-.626.028-2.815.38-3.165z"/><path fill="#fff" d="M52.472 98.078a50.403 50.403 0 0 0-5.726-.525c-.39-.005-.771-.028-1.14.055-.473.096-.897.319-1.32.542-.769.393-1.548.804-2.298 1.208a.448.448 0 0 0-.19.16c-.046.122.051.252.14.353.94.887 2.281 1.292 3.576 1.35 1.295.059 2.589-.178 3.864-.426.638-.125 1.257-.259 1.845-.51.108-.061 1.561.231 1.66.189"/><path stroke="#000" stroke-linecap="round" stroke-linejoin="round" stroke-miterlimit="10" stroke-width=".3" d="M52.472 98.078a50.403 50.403 0 0 0-5.726-.525c-.39-.005-.771-.028-1.14.055-.473.096-.897.319-1.32.542-.769.393-1.548.804-2.298 1.208a.448.448 0 0 0-.19.16c-.046.122.051.252.14.353.94.887 2.281 1.292 3.576 1.35 1.295.059 2.589-.178 3.864-.426.638-.125 1.257-.259 1.845-.51.108-.061 1.561.231 1.66.189"/><path fill="#fff" d="M76.818 101.294c-6.759 1.778-16.717 2.6-23.765-.568-.556-.252-.055-.082-.378-.611-.325-.55-.25-1.682-.197-2.328 7.401-.934 12.521-2.415 18.628-3.296"/><path stroke="#000" stroke-linecap="round" stroke-linejoin="round" stroke-miterlimit="10" stroke-width=".3" d="M76.818 101.294c-6.759 1.778-16.717 2.6-23.765-.568-.556-.252-.055-.082-.378-.611-.325-.55-.25-1.682-.197-2.328 7.401-.934 12.521-2.415 18.628-3.296"/><defs><clipPath id="a"><path fill="#fff" d="M46.324 0h24.214v33.631H46.324z"/></clipPath></defs></svg>