<svg xmlns="http://www.w3.org/2000/svg" width="114" height="113" fill="none"><path fill="#5465A3" stroke="#000" stroke-width=".3" d="M52.262 17.344v-.002a10.5 10.5 0 0 1 1.506-7.924c1.53-2.32 4.513-3.957 7.345-4.607a12.185 12.185 0 0 1 5.897.12 12.33 12.33 0 0 1 5.182 2.867 11.648 11.648 0 0 1 3.147 4.879c.605 1.843.714 3.787.315 5.647a11.052 11.052 0 0 1-2.747 5.064c-3.763 3.972-8.06 7.284-13.364 9.319-.628.24-1.33-.093-1.585-.73-.647-1.617-1.363-3.178-2.067-4.715-.402-.878-.801-1.747-1.181-2.614-1.048-2.391-1.96-4.775-2.448-7.304z"/><path fill="#fff" d="M61.65 24.383c.396.093.697-.086.798-.517l.213-.906c2.178.29 3.79-.651 4.222-2.488.372-1.582-.33-2.767-2.245-3.763l-1.779-.929c-1.007-.532-1.436-1.285-1.235-2.14.26-1.109 1.363-1.626 2.79-1.29 1.107.262 1.744.85 2.247 2.05.21.505.367.675.654.743.372.088.666-.102.757-.491.108-.457-.057-1.085-.444-1.677-.464-.717-1.228-1.3-2.152-1.651l.198-.847c.102-.431-.096-.728-.484-.82-.397-.093-.698.086-.8.518l-.19.812c-2.078-.303-3.65.622-4.064 2.382-.354 1.507.355 2.817 1.991 3.668l1.81.945c1.23.647 1.654 1.31 1.436 2.241-.287 1.219-1.387 1.728-2.967 1.355-1.233-.291-1.984-.924-2.512-2.13-.252-.559-.346-.653-.6-.712-.38-.09-.695.113-.794.536-.115.49.08 1.135.535 1.743.53.705 1.359 1.276 2.346 1.625l-.216.923c-.102.431.079.724.484.82z"/><path fill="#C0C8E5" stroke="#000" stroke-width=".3" d="M20.486 26.703h-.001a7.61 7.61 0 0 1-2.896-5.082c-.246-1.998.63-4.31 1.89-6.006a8.944 8.944 0 0 1 7.524-3.574 8.437 8.437 0 0 1 4.032 1.21 7.834 7.834 0 0 1 2.83 2.967 8.022 8.022 0 0 1 .865 4.09c-.21 3.981-1.026 7.846-3.003 11.481-.223.41-.745.552-1.17.329-1.124-.59-2.261-1.118-3.379-1.638-.638-.296-1.27-.59-1.889-.89-1.71-.829-3.34-1.717-4.803-2.887z"/><path fill="#000" d="M26.51 22.909c.145.349.458.49.787.353.335-.14.424-.409.321-.807-.217-.729-.152-1.018.377-1.996.608-1.119.74-1.845.392-2.683-.56-1.351-2.013-1.806-3.579-1.154-.783.325-1.33.793-1.627 1.38-.294.593-.352 1.252-.153 1.733.12.29.373.417.656.299.243-.101.329-.268.343-.66.02-.905.386-1.452 1.19-1.786.874-.364 1.712-.055 2.012.67.26.626.137 1.095-.343 1.982-.68 1.265-.745 1.778-.376 2.669zm.901 2.678a.807.807 0 0 0 1.066.43.814.814 0 0 0 .448-1.06.813.813 0 0 0-1.068-.437.811.811 0 0 0-.446 1.067z"/><path fill="#fff" stroke="#000" stroke-linecap="round" stroke-linejoin="round" stroke-miterlimit="10" stroke-width=".3" d="M87.909 107.084h-1.047c-3.322-.036-6.644-.036-10.001-.036-3.61 0-7.185-.036-10.796-.036H55.668c-2.709 0-5.416 0-8.16.036v.108c0-.036-.037-.072-.037-.108-1.84 0-3.646 0-5.487.036-2.528 0-5.091.036-7.618.036-5.741.036-11.482.071-17.222.143h-.506l-.108-7.521c-.108-6.948-.18-13.86-.253-20.808l-.108-12.07c0-1.79-.036-3.617.253-5.408.216-1.432.65-2.83 1.083-4.226a189.78 189.78 0 0 1 4.982-14.003l58.237.322c.433 0 .902 0 1.263.25.325.215.506.574.65.932a98.833 98.833 0 0 1 2.96 6.984c.687 1.79 1.337 3.581 1.698 5.443.541 2.615.541 5.301.541 7.951.036 13.968.073 27.971.073 41.975z"/><path fill="#fff" stroke="#000" stroke-linecap="round" stroke-linejoin="round" stroke-miterlimit="10" stroke-width=".3" d="M42.975 73.167c5.858-.072 11.753-.107 17.611-.179-.111-3.653-.26-7.306-.482-10.96-5.635-.035-11.308-.035-16.944 0-.037 1.398 0 2.83-.11 4.227a58.29 58.29 0 0 0-.15 4.405c.038.86.038 1.683.075 2.507z"/><path fill="#fff" d="M48.943 62.136c.187 1.576.15 3.151.15 4.763-.038 2.077-.038 4.119-.075 6.196v-.18"/><path stroke="#000" stroke-linecap="round" stroke-linejoin="round" stroke-miterlimit="10" stroke-width=".3" d="M48.943 62.136c.187 1.576.15 3.151.15 4.763-.038 2.077-.038 4.119-.075 6.196v-.18"/><path fill="#fff" d="M54.985 62.136c-.037.609.038 1.253.075 1.862.037.824-.037 1.648-.037 2.471-.038 1.003 0 2.006 0 3.009.037 1.182.037 2.364.074 3.545"/><path stroke="#000" stroke-linecap="round" stroke-linejoin="round" stroke-miterlimit="10" stroke-width=".3" d="M54.985 62.136c-.037.609.038 1.253.075 1.862.037.824-.037 1.648-.037 2.471-.038 1.003 0 2.006 0 3.009.037 1.182.037 2.364.074 3.545"/><path fill="#fff" d="M60.29 67.65c-1.853-.071-3.744.072-5.598 0-3.856-.214-7.75.144-11.642 0"/><path stroke="#000" stroke-linecap="round" stroke-linejoin="round" stroke-miterlimit="10" stroke-width=".3" d="M60.29 67.65c-1.853-.071-3.744.072-5.598 0-3.856-.214-7.75.144-11.642 0"/><path fill="#fff" stroke="#000" stroke-linecap="round" stroke-linejoin="round" stroke-miterlimit="10" stroke-width=".3" d="M66.183 97.234c5.858-.071 11.753-.107 17.611-.179-.111-3.653-.26-7.306-.482-10.959-5.635-.036-11.308-.036-16.944 0-.037 1.397 0 2.83-.11 4.226a58.29 58.29 0 0 0-.15 4.406c0 .823.038 1.683.075 2.507z"/><path fill="#fff" d="M72.158 86.17c.187 1.576.15 3.152.15 4.763-.038 2.077-.038 4.119-.076 6.196v-.179"/><path stroke="#000" stroke-linecap="round" stroke-linejoin="round" stroke-miterlimit="10" stroke-width=".3" d="M72.158 86.17c.187 1.576.15 3.152.15 4.763-.038 2.077-.038 4.119-.076 6.196v-.179"/><path fill="#fff" d="M78.158 86.203c-.037.609.037 1.254.075 1.862.037.824-.038 1.648-.038 2.472-.037 1.002 0 2.005 0 3.008.038 1.182.038 2.364.075 3.546"/><path stroke="#000" stroke-linecap="round" stroke-linejoin="round" stroke-miterlimit="10" stroke-width=".3" d="M78.158 86.203c-.037.609.037 1.254.075 1.862.037.824-.038 1.648-.038 2.472-.037 1.002 0 2.005 0 3.008.038 1.182.038 2.364.075 3.546"/><path fill="#fff" d="M83.466 91.682c-1.854-.072-3.745.072-5.598 0-3.856-.215-7.75.143-11.642 0"/><path stroke="#000" stroke-linecap="round" stroke-linejoin="round" stroke-miterlimit="10" stroke-width=".3" d="M83.466 91.682c-1.854-.072-3.745.072-5.598 0-3.856-.215-7.75.143-11.642 0"/><path fill="#fff" stroke="#000" stroke-linecap="round" stroke-linejoin="round" stroke-miterlimit="10" stroke-width=".3" d="M72.377 72.989a37.01 37.01 0 0 0 5.265-.036c.037-1.397-.112-2.794-.149-4.154-.074-2.15.037-4.262-.037-6.411-1.742.107-3.485.143-5.228.179.038 0 0 3.402 0 3.653.038 1.432.038 2.865.075 4.298.037.86.074 1.647.074 2.47z"/><path fill="#fff" d="M77.416 67.616c-.296.036-.63 0-.926 0-1.372-.107-2.744-.035-4.116.036"/><path stroke="#000" stroke-linecap="round" stroke-linejoin="round" stroke-miterlimit="10" stroke-width=".3" d="M77.416 67.616c-.296.036-.63 0-.926 0-1.372-.107-2.744-.035-4.116.036"/><path fill="#fff" stroke="#000" stroke-linecap="round" stroke-linejoin="round" stroke-miterlimit="10" stroke-width=".3" d="M25.919 73.095c1.742.108 3.522.108 5.265 0 .037-1.289-.112-2.614-.149-3.903-.074-2.006.037-4.012-.037-6.017-1.742.107-3.485.143-5.228.179.038 0 0 3.187 0 3.438.038 1.361.038 2.686.075 4.047.074.752.074 1.504.074 2.256z"/><path fill="#fff" d="M30.962 68.081c-.297.036-.63 0-.927 0-1.372-.107-2.744-.036-4.116.036"/><path stroke="#000" stroke-linecap="round" stroke-linejoin="round" stroke-miterlimit="10" stroke-width=".3" d="M30.962 68.081c-.297.036-.63 0-.927 0-1.372-.107-2.744-.036-4.116.036"/><path fill="#fff" stroke="#000" stroke-linecap="round" stroke-linejoin="round" stroke-miterlimit="10" stroke-width=".3" d="M49.76 54.721c.149.466.445.896.853 1.183.148.107.297.179.482.25.186.036.371.036.52.036.481-.072.926-.25 1.297-.537.37-.287.63-.717.742-1.182.11-.466.036-.932-.112-1.361-.111-.287-.26-.574-.519-.788-.26-.215-.593-.323-.964-.359-.26-.035-.556 0-.816.072a2.513 2.513 0 0 0-.704.322c-.816.502-1.038 1.469-.779 2.364zm22.657-8.451c.371.143.742.107 1.15.107l1.89-.107 1.928-.108c.037 0 .075 0 .075-.036 0-.035.037-.035.037-.071.333-3.224-.297-6.447-.075-9.67 0-.072 0-.143-.037-.18a.288.288 0 0 0-.185-.07c-1.631-.072-3.263-.037-4.931 0-.037 0-.111 3.043-.111 3.437.037 1.397.11 2.83.148 4.226.037.86.074 1.684.111 2.472zm-21.768 57.879c3.337.214 6.71.25 10.047.035 0-2.363-.074-4.727-.26-7.09-.185-2.329-.11-4.657-.296-6.985-.111-1.36-.185-3.151-.26-4.512-3.225-.036-6.302-.18-9.528.071-.26.036.148 9.491.185 10.315.038 1.29 0 2.614.038 3.904 0 1.432.036 2.829.074 4.262z"/><path fill="#fff" stroke="#000" stroke-linecap="round" stroke-linejoin="round" stroke-miterlimit="10" stroke-width=".3" d="M51.91 95.084c.075.25.297.501.557.501.148 0 .297-.071.445-.143a.285.285 0 0 0 .148-.143.687.687 0 0 0 .111-.537c-.11-.86-1.446-.573-1.26.322zm-4.372 11.964v.106c0-.036-.037-.071-.037-.106h.037z"/><path fill="#fff" d="M.227 107.226c3.646 0 7.669.071 11.189.035 8.214-.071 16.386-.143 24.6-.179 8.256-.035 16.47-.071 24.725-.071 8.214 0 16.386 0 24.6.036l24.642.107c1.005 0 2.011 0 3.017.036"/><path stroke="#000" stroke-linecap="round" stroke-linejoin="round" stroke-miterlimit="10" stroke-width=".3" d="M.227 107.226c3.646 0 7.669.071 11.189.035 8.214-.071 16.386-.143 24.6-.179 8.256-.035 16.47-.071 24.725-.071 8.214 0 16.386 0 24.6.036l24.642.107c1.005 0 2.011 0 3.017.036"/><path fill="#fff" stroke="#000" stroke-linecap="round" stroke-linejoin="round" stroke-miterlimit="10" stroke-width=".3" d="M47.607 102.891c0 1.433-.037 2.794-.074 4.155v.107c0-.036-.037-.071-.037-.107-1.891 0-3.745 0-5.636.036-2.595 0-5.228.035-7.823.035-5.895.036-11.79.072-17.685.144h-.52c-1.186 0-2.335.036-3.522.036h-1.334c.037-3.761.074-8.524.074-11.21 0-3.08.074-12.679-.037-14.756 1.631-.967 2.224-1.361 3.41-1.934.334-.18.668-.322 1.002-.466a50.18 50.18 0 0 1 3.188-1.396c2.744-1.146 5.599-2.078 8.49-2.865.52-.144 1.039-.287 1.595-.215.37.035.704.143 1.075.25a113.802 113.802 0 0 1 17.018 6.733c.556 6.053.853 14.219.816 21.453z"/><path fill="#fff" stroke="#000" stroke-linecap="round" stroke-linejoin="round" stroke-miterlimit="10" stroke-width=".3" d="M41.861 107.048c-2.595 0-5.227.036-7.823.036-5.895.035-11.79.071-17.685.143 0-.072-.037-.143-.037-.179-.223-1.433-.037-3.009-.074-4.477 0-1.576 0-3.188-.037-4.763 0-3.188-.037-6.375-.037-9.563v-1.218a547.41 547.41 0 0 1 25.434-.179c.334 6.734.296 13.467.26 20.2zm22.134-.036h-8.083c-2.78 0-5.561 0-8.38.036v.108c0-.036-.036-.072-.036-.108-.408-1.182-.111-3.116 0-4.119h.11l15.832-.108c.186 1.361.371 2.794.557 4.191zM21.906 43.269l-6.437 17.22c1.733 0 15.104 0 17.58-.478 2.476-.478 15.35-13.633 18.322-13.633 1.486 0 18.323 13.394 20.304 13.633 1.98.24 15.846 0 17.332-.957.396-.765-4.127-10.842-6.438-15.785H21.906z"/><path fill="#fff" stroke="#000" stroke-linecap="round" stroke-linejoin="round" stroke-miterlimit="10" stroke-width=".3" d="M84.304 77.147c-.049 1.554.147 3.118.716 4.568 1.314 3.328 4.726 5.77 8.384 5.989 3.658.229 7.355-1.784 9.09-4.921.765-1.383 1.157-2.928 1.442-4.473.235-1.259.392-2.556.058-3.795-.353-1.269-1.196-2.356-2.069-3.357-.127-.143-.255-.296-.304-.487-.049-.19 0-.39.049-.59a20.681 20.681 0 0 0-1.215-13.428c-.863-1.917-2.177-3.834-4.217-4.52-2-.668-4.285.056-5.854 1.43-1.57 1.373-2.5 3.309-3.118 5.273a21.818 21.818 0 0 0-.932 8.106c.049.668.127 1.336.245 1.994.098.562.373 1.23.285 1.802-.07.4-.363.658-.628.954a6.414 6.414 0 0 0-1.02 1.488c-.627 1.22-.873 2.612-.912 3.967z"/><path stroke="#000" stroke-linecap="round" stroke-linejoin="round" stroke-miterlimit="10" stroke-width=".3" d="M93.943 78.586c.452 4.434.383 8.907.324 13.36-.069 4.95-.147 9.909-.216 14.859m.302-22.181c1.147-1.202 2.304-2.404 3.452-3.596"/></svg>